<?xml version="1.0" encoding="UTF-8" standalone="no"?>
<!DOCTYPE svg PUBLIC "-//W3C//DTD SVG 1.1//EN"
 "http://www.w3.org/Graphics/SVG/1.1/DTD/svg11.dtd">
<!-- Generated by graphviz version 2.38.0 (20140413.2041)
 -->
<!-- Title: Q Pages: 1 -->
<svg width="434pt" height="341pt"
 viewBox="0.00 0.00 434.00 340.99" xmlns="http://www.w3.org/2000/svg" xmlns:xlink="http://www.w3.org/1999/xlink">
<g id="graph0" class="graph" transform="scale(1 1) rotate(0) translate(4 336.988)">
<title>Q</title>
<polygon fill="white" stroke="none" points="-4,4 -4,-336.988 430,-336.988 430,4 -4,4"/>
<g id="clust1" class="cluster"><title>cluster_F</title>
<polygon fill="none" stroke="black" stroke-dasharray="1,5" points="8,-16.4493 8,-310.491 186,-310.491 186,-16.4493 8,-16.4493"/>
<text text-anchor="middle" x="97" y="-295.291" font-family="Times,serif" font-size="14.00">Forward</text>
</g>
<g id="clust2" class="cluster"><title>cluster_B</title>
<polygon fill="none" stroke="black" stroke-dasharray="1,5" points="194,-8 194,-324.988 418,-324.988 418,-8 194,-8"/>
<text text-anchor="middle" x="306" y="-309.788" font-family="Times,serif" font-size="14.00">Backward</text>
</g>
<!-- X -->
<g id="node1" class="node"><title>X</title>
<ellipse fill="none" stroke="black" cx="128" cy="-261.491" rx="18" ry="18"/>
<text text-anchor="middle" x="128" y="-257.791" font-family="Times,serif" font-size="14.00">X</text>
</g>
<!-- A -->
<g id="node3" class="node"><title>A</title>
<polygon fill="none" stroke="black" points="97,-192.994 16,-154.994 97,-116.994 178,-154.994 97,-192.994"/>
<text text-anchor="middle" x="97" y="-158.794" font-family="Times,serif" font-size="14.00">Activation</text>
<text text-anchor="middle" x="97" y="-143.794" font-family="Times,serif" font-size="14.00">MKL&#45;DNN</text>
</g>
<!-- X&#45;&gt;A -->
<g id="edge1" class="edge"><title>X&#45;&gt;A</title>
<path fill="none" stroke="black" d="M123.019,-243.702C119.391,-231.471 114.306,-214.332 109.594,-198.445"/>
<polygon fill="black" stroke="black" points="112.923,-197.363 106.724,-188.771 106.212,-199.354 112.923,-197.363"/>
</g>
<!-- Agrad -->
<g id="node4" class="node"><title>Agrad</title>
<polygon fill="none" stroke="black" points="306,-192.994 202,-154.994 306,-116.994 410,-154.994 306,-192.994"/>
<text text-anchor="middle" x="306" y="-158.794" font-family="Times,serif" font-size="14.00">Activation Grad</text>
<text text-anchor="middle" x="306" y="-143.794" font-family="Times,serif" font-size="14.00">MKL&#45;DNN</text>
</g>
<!-- X&#45;&gt;Agrad -->
<g id="edge5" class="edge"><title>X&#45;&gt;Agrad</title>
<path fill="none" stroke="black" d="M143.176,-251.582C168.316,-236.823 219.63,-206.699 257.969,-184.191"/>
<polygon fill="black" stroke="black" points="260.068,-187.018 266.92,-178.937 256.524,-180.981 260.068,-187.018"/>
</g>
<!-- Out -->
<g id="node2" class="node"><title>Out</title>
<ellipse fill="none" stroke="black" cx="97" cy="-48.4971" rx="24.0958" ry="24.0958"/>
<text text-anchor="middle" x="97" y="-44.7971" font-family="Times,serif" font-size="14.00">Out</text>
</g>
<!-- A&#45;&gt;Out -->
<g id="edge2" class="edge"><title>A&#45;&gt;Out</title>
<path fill="none" stroke="black" d="M97,-116.858C97,-105.859 97,-93.8819 97,-83.1184"/>
<polygon fill="black" stroke="black" points="100.5,-82.8405 97,-72.8406 93.5001,-82.8406 100.5,-82.8405"/>
</g>
<!-- dX -->
<g id="node5" class="node"><title>dX</title>
<ellipse fill="none" stroke="black" cx="306" cy="-48.4971" rx="32.4942" ry="32.4942"/>
<text text-anchor="middle" x="306" y="-44.7971" font-family="Times,serif" font-size="14.00">diff X</text>
</g>
<!-- Agrad&#45;&gt;dX -->
<g id="edge4" class="edge"><title>Agrad&#45;&gt;dX</title>
<path fill="none" stroke="black" d="M306,-116.858C306,-108.6 306,-99.7917 306,-91.3591"/>
<polygon fill="black" stroke="black" points="309.5,-91.3219 306,-81.3219 302.5,-91.322 309.5,-91.3219"/>
</g>
<!-- dY -->
<g id="node6" class="node"><title>dY</title>
<ellipse fill="none" stroke="black" cx="306" cy="-261.491" rx="32.4942" ry="32.4942"/>
<text text-anchor="middle" x="306" y="-257.791" font-family="Times,serif" font-size="14.00">diff Y</text>
</g>
<!-- dY&#45;&gt;Agrad -->
<g id="edge3" class="edge"><title>dY&#45;&gt;Agrad</title>
<path fill="none" stroke="black" d="M306,-228.855C306,-220.738 306,-211.831 306,-203.115"/>
<polygon fill="black" stroke="black" points="309.5,-203.031 306,-193.031 302.5,-203.031 309.5,-203.031"/>
</g>
</g>
</svg>
