<?xml version="1.0" encoding="UTF-8" standalone="no"?>
<!DOCTYPE svg PUBLIC "-//W3C//DTD SVG 1.1//EN"
 "http://www.w3.org/Graphics/SVG/1.1/DTD/svg11.dtd">
<!-- Generated by graphviz version 2.38.0 (20140413.2041)
 -->
<!-- Title: Q Pages: 1 -->
<svg width="608pt" height="578pt"
 viewBox="0.00 0.00 608.00 577.99" xmlns="http://www.w3.org/2000/svg" xmlns:xlink="http://www.w3.org/1999/xlink">
<g id="graph0" class="graph" transform="scale(1 1) rotate(0) translate(4 573.988)">
<title>Q</title>
<polygon fill="white" stroke="none" points="-4,4 -4,-573.988 604,-573.988 604,4 -4,4"/>
<g id="clust1" class="cluster"><title>cluster_F</title>
<polygon fill="none" stroke="black" stroke-dasharray="1,5" points="8,-245.443 8,-561.988 186,-561.988 186,-245.443 8,-245.443"/>
<text text-anchor="middle" x="97" y="-546.788" font-family="Times,serif" font-size="14.00">Forward</text>
</g>
<g id="clust2" class="cluster"><title>cluster_B</title>
<polygon fill="none" stroke="black" stroke-dasharray="1,5" points="194,-8 194,-340.988 418,-340.988 418,-8 194,-8"/>
<text text-anchor="middle" x="306" y="-325.788" font-family="Times,serif" font-size="14.00">Backward</text>
</g>
<g id="clust3" class="cluster"><title>cluster_C</title>
<polygon fill="lightgrey" stroke="black" points="426,-251.491 426,-326.491 592,-326.491 592,-251.491 426,-251.491"/>
<text text-anchor="middle" x="509" y="-311.291" font-family="Times,serif" font-size="14.00">MKL&#45;DNN DeviceContext</text>
</g>
<!-- X -->
<g id="node1" class="node"><title>X</title>
<ellipse fill="none" stroke="black" cx="97" cy="-512.988" rx="18" ry="18"/>
<text text-anchor="middle" x="97" y="-509.288" font-family="Times,serif" font-size="14.00">X</text>
</g>
<!-- A -->
<g id="node3" class="node"><title>A</title>
<polygon fill="none" stroke="black" points="97,-457.988 16,-419.988 97,-381.988 178,-419.988 97,-457.988"/>
<text text-anchor="middle" x="97" y="-423.788" font-family="Times,serif" font-size="14.00">Activation</text>
<text text-anchor="middle" x="97" y="-408.788" font-family="Times,serif" font-size="14.00">MKL&#45;DNN</text>
</g>
<!-- X&#45;&gt;A -->
<g id="edge1" class="edge"><title>X&#45;&gt;A</title>
<path fill="none" stroke="black" d="M97,-494.872C97,-487.235 97,-477.821 97,-468.301"/>
<polygon fill="black" stroke="black" points="100.5,-468.008 97,-458.008 93.5001,-468.008 100.5,-468.008"/>
</g>
<!-- Out -->
<g id="node2" class="node"><title>Out</title>
<ellipse fill="none" stroke="black" cx="139" cy="-277.491" rx="24.0958" ry="24.0958"/>
<text text-anchor="middle" x="139" y="-273.791" font-family="Times,serif" font-size="14.00">Out</text>
</g>
<!-- Agrad -->
<g id="node4" class="node"><title>Agrad</title>
<polygon fill="none" stroke="black" points="306,-193.994 202,-155.994 306,-117.994 410,-155.994 306,-193.994"/>
<text text-anchor="middle" x="306" y="-159.794" font-family="Times,serif" font-size="14.00">Activation Grad</text>
<text text-anchor="middle" x="306" y="-144.794" font-family="Times,serif" font-size="14.00">MKL&#45;DNN</text>
</g>
<!-- Out&#45;&gt;Agrad -->
<g id="edge3" class="edge"><title>Out&#45;&gt;Agrad</title>
<path fill="none" stroke="black" d="M158.157,-262.784C183.668,-244.529 229.511,-211.726 263.408,-187.471"/>
<polygon fill="black" stroke="black" points="265.653,-190.169 271.748,-181.503 261.579,-184.476 265.653,-190.169"/>
</g>
<!-- A&#45;&gt;Out -->
<g id="edge2" class="edge"><title>A&#45;&gt;Out</title>
<path fill="none" stroke="black" d="M106.741,-386.402C113.55,-363.626 122.6,-333.351 129.382,-310.666"/>
<polygon fill="black" stroke="black" points="132.811,-311.415 132.322,-300.831 126.104,-309.41 132.811,-311.415"/>
</g>
<!-- cache -->
<g id="node7" class="node"><title>cache</title>
<polygon fill="none" stroke="black" points="488,-295.491 434,-295.491 434,-259.491 488,-259.491 488,-295.491"/>
<text text-anchor="middle" x="461" y="-273.791" font-family="Times,serif" font-size="14.00">cache</text>
</g>
<!-- A&#45;&gt;cache -->
<g id="edge6" class="edge"><title>A&#45;&gt;cache</title>
<path fill="none" stroke="black" d="M171.719,-416.93C242.254,-411.562 347.962,-394.318 422,-340.988 434.487,-331.994 443.852,-317.647 450.271,-304.967"/>
<polygon fill="black" stroke="black" points="453.534,-306.252 454.608,-295.712 447.195,-303.282 453.534,-306.252"/>
<text text-anchor="middle" x="454" y="-352.788" font-family="Times,serif" font-size="14.00">Store X in Cache</text>
</g>
<!-- dX -->
<g id="node5" class="node"><title>dX</title>
<ellipse fill="none" stroke="black" cx="306" cy="-48.4971" rx="32.4942" ry="32.4942"/>
<text text-anchor="middle" x="306" y="-44.7971" font-family="Times,serif" font-size="14.00">diff X</text>
</g>
<!-- Agrad&#45;&gt;dX -->
<g id="edge5" class="edge"><title>Agrad&#45;&gt;dX</title>
<path fill="none" stroke="black" d="M306,-117.8C306,-109.187 306,-99.9664 306,-91.1755"/>
<polygon fill="black" stroke="black" points="309.5,-91.1151 306,-81.1151 302.5,-91.1151 309.5,-91.1151"/>
</g>
<!-- dY -->
<g id="node6" class="node"><title>dY</title>
<ellipse fill="none" stroke="black" cx="306" cy="-277.491" rx="32.4942" ry="32.4942"/>
<text text-anchor="middle" x="306" y="-273.791" font-family="Times,serif" font-size="14.00">diff Y</text>
</g>
<!-- dY&#45;&gt;Agrad -->
<g id="edge4" class="edge"><title>dY&#45;&gt;Agrad</title>
<path fill="none" stroke="black" d="M306,-244.782C306,-232.44 306,-218.033 306,-204.502"/>
<polygon fill="black" stroke="black" points="309.5,-204.374 306,-194.374 302.5,-204.374 309.5,-204.374"/>
</g>
<!-- cache&#45;&gt;Agrad -->
<g id="edge7" class="edge"><title>cache&#45;&gt;Agrad</title>
<path fill="none" stroke="black" d="M440.044,-259.373C434.229,-254.676 427.894,-249.608 422,-244.994 397.555,-225.858 369.868,-204.83 347.675,-188.129"/>
<polygon fill="black" stroke="black" points="349.553,-185.163 339.456,-181.953 345.348,-190.759 349.553,-185.163"/>
<text text-anchor="middle" x="451" y="-215.794" font-family="Times,serif" font-size="14.00">Read X from Cache</text>
</g>
</g>
</svg>
