<?xml version="1.0" encoding="UTF-8" standalone="no"?>
<!DOCTYPE svg PUBLIC "-//W3C//DTD SVG 1.1//EN"
 "http://www.w3.org/Graphics/SVG/1.1/DTD/svg11.dtd">
<!-- Generated by graphviz version 2.38.0 (20140413.2041)
 -->
<!-- Title: Q Pages: 1 -->
<svg width="434pt" height="528pt"
 viewBox="0.00 0.00 434.00 527.99" xmlns="http://www.w3.org/2000/svg" xmlns:xlink="http://www.w3.org/1999/xlink">
<g id="graph0" class="graph" transform="scale(1 1) rotate(0) translate(4 523.988)">
<title>Q</title>
<polygon fill="white" stroke="none" points="-4,4 -4,-523.988 430,-523.988 430,4 -4,4"/>
<g id="clust1" class="cluster"><title>cluster_F</title>
<polygon fill="none" stroke="black" stroke-dasharray="1,5" points="8,-229.443 8,-511.988 186,-511.988 186,-229.443 8,-229.443"/>
<text text-anchor="middle" x="97" y="-496.788" font-family="Times,serif" font-size="14.00">Forward</text>
</g>
<g id="clust2" class="cluster"><title>cluster_B</title>
<polygon fill="none" stroke="black" stroke-dasharray="1,5" points="194,-8 194,-324.988 418,-324.988 418,-8 194,-8"/>
<text text-anchor="middle" x="306" y="-309.788" font-family="Times,serif" font-size="14.00">Backward</text>
</g>
<!-- X -->
<g id="node1" class="node"><title>X</title>
<ellipse fill="none" stroke="black" cx="128" cy="-462.988" rx="18" ry="18"/>
<text text-anchor="middle" x="128" y="-459.288" font-family="Times,serif" font-size="14.00">X</text>
</g>
<!-- A -->
<g id="node3" class="node"><title>A</title>
<polygon fill="none" stroke="black" points="97,-408.988 16,-370.988 97,-332.988 178,-370.988 97,-408.988"/>
<text text-anchor="middle" x="97" y="-374.788" font-family="Times,serif" font-size="14.00">Activation</text>
<text text-anchor="middle" x="97" y="-359.788" font-family="Times,serif" font-size="14.00">MKL&#45;DNN</text>
</g>
<!-- X&#45;&gt;A -->
<g id="edge1" class="edge"><title>X&#45;&gt;A</title>
<path fill="none" stroke="black" d="M122.314,-445.481C119.232,-436.532 115.27,-425.03 111.4,-413.794"/>
<polygon fill="black" stroke="black" points="114.613,-412.375 108.047,-404.06 107.994,-414.654 114.613,-412.375"/>
</g>
<!-- Agrad -->
<g id="node4" class="node"><title>Agrad</title>
<polygon fill="none" stroke="black" points="306,-192.994 202,-154.994 306,-116.994 410,-154.994 306,-192.994"/>
<text text-anchor="middle" x="306" y="-158.794" font-family="Times,serif" font-size="14.00">Activation Grad</text>
<text text-anchor="middle" x="306" y="-143.794" font-family="Times,serif" font-size="14.00">MKL&#45;DNN</text>
</g>
<!-- X&#45;&gt;Agrad -->
<g id="edge6" class="edge"><title>X&#45;&gt;Agrad</title>
<path fill="none" stroke="black" d="M143.599,-453.903C176.622,-435.852 253.315,-388.789 287,-324.988 307.074,-286.968 310.458,-237.519 309.644,-201.946"/>
<polygon fill="black" stroke="black" points="313.139,-201.714 309.293,-191.842 306.143,-201.957 313.139,-201.714"/>
</g>
<!-- Out -->
<g id="node2" class="node"><title>Out</title>
<ellipse fill="none" stroke="black" cx="125" cy="-261.491" rx="24.0958" ry="24.0958"/>
<text text-anchor="middle" x="125" y="-257.791" font-family="Times,serif" font-size="14.00">Out</text>
</g>
<!-- Out&#45;&gt;Agrad -->
<g id="edge3" class="edge"><title>Out&#45;&gt;Agrad</title>
<path fill="none" stroke="grey" stroke-dasharray="5,2" d="M145.411,-248.707C172.429,-233.109 220.921,-205.113 257.572,-183.953"/>
<polygon fill="grey" stroke="grey" points="259.705,-186.764 266.615,-178.732 256.205,-180.701 259.705,-186.764"/>
</g>
<!-- A&#45;&gt;Out -->
<g id="edge2" class="edge"><title>A&#45;&gt;Out</title>
<path fill="none" stroke="black" d="M105.629,-336.859C109.112,-323.487 113.118,-308.109 116.579,-294.82"/>
<polygon fill="black" stroke="black" points="119.969,-295.692 119.103,-285.133 113.195,-293.928 119.969,-295.692"/>
</g>
<!-- dX -->
<g id="node5" class="node"><title>dX</title>
<ellipse fill="none" stroke="black" cx="306" cy="-48.4971" rx="32.4942" ry="32.4942"/>
<text text-anchor="middle" x="306" y="-44.7971" font-family="Times,serif" font-size="14.00">diff X</text>
</g>
<!-- Agrad&#45;&gt;dX -->
<g id="edge5" class="edge"><title>Agrad&#45;&gt;dX</title>
<path fill="none" stroke="black" d="M306,-116.858C306,-108.6 306,-99.7917 306,-91.3591"/>
<polygon fill="black" stroke="black" points="309.5,-91.3219 306,-81.3219 302.5,-91.322 309.5,-91.3219"/>
</g>
<!-- dY -->
<g id="node6" class="node"><title>dY</title>
<ellipse fill="none" stroke="black" cx="246" cy="-261.491" rx="32.4942" ry="32.4942"/>
<text text-anchor="middle" x="246" y="-257.791" font-family="Times,serif" font-size="14.00">diff Y</text>
</g>
<!-- dY&#45;&gt;Agrad -->
<g id="edge4" class="edge"><title>dY&#45;&gt;Agrad</title>
<path fill="none" stroke="black" d="M261.764,-233.036C268.358,-221.552 276.146,-207.988 283.335,-195.467"/>
<polygon fill="black" stroke="black" points="286.495,-196.994 288.439,-186.579 280.424,-193.509 286.495,-196.994"/>
</g>
</g>
</svg>
