<?xml version="1.0" encoding="UTF-8" standalone="no"?>
<!DOCTYPE svg PUBLIC "-//W3C//DTD SVG 1.1//EN"
 "http://www.w3.org/Graphics/SVG/1.1/DTD/svg11.dtd">
<!-- Generated by graphviz version 2.38.0 (20140413.2041)
 -->
<!-- Title: Q Pages: 1 -->
<svg width="543pt" height="285pt"
 viewBox="0.00 0.00 543.00 285.00" xmlns="http://www.w3.org/2000/svg" xmlns:xlink="http://www.w3.org/1999/xlink">
<g id="graph0" class="graph" transform="scale(1 1) rotate(0) translate(4 281)">
<title>Q</title>
<polygon fill="white" stroke="none" points="-4,4 -4,-281 539,-281 539,4 -4,4"/>
<!-- Analysis -->
<g id="node1" class="node"><title>Analysis</title>
<polygon fill="none" stroke="black" points="0,-208.5 0,-276.5 276,-276.5 276,-208.5 0,-208.5"/>
<text text-anchor="middle" x="138" y="-261.3" font-family="Times,serif" font-size="14.00">Analysis Predictor</text>
<text text-anchor="middle" x="138" y="-246.3" font-family="Times,serif" font-size="14.00"> ...</text>
<text text-anchor="middle" x="138" y="-231.3" font-family="Times,serif" font-size="14.00">How_To_Update_Hash1() {</text>
<text text-anchor="middle" x="138" y="-216.3" font-family="Times,serif" font-size="14.00"> Hash = paddle::platform::get_cur_thread_id()}</text>
</g>
<!-- MKLDNNDeviceContext -->
<g id="node3" class="node"><title>MKLDNNDeviceContext</title>
<polygon fill="none" stroke="black" points="184,-88.5 184,-156.5 366,-156.5 366,-88.5 184,-88.5"/>
<text text-anchor="middle" x="275" y="-141.3" font-family="Times,serif" font-size="14.00">MKLDNNDeviceContext</text>
<text text-anchor="middle" x="275" y="-126.3" font-family="Times,serif" font-size="14.00"> Get_Hash_Prefix() {</text>
<text text-anchor="middle" x="275" y="-111.3" font-family="Times,serif" font-size="14.00"> How_To_Update_Hash_1();</text>
<text text-anchor="middle" x="275" y="-96.3" font-family="Times,serif" font-size="14.00"> How_To_Update_Hash_2();}</text>
</g>
<!-- Analysis&#45;&gt;MKLDNNDeviceContext -->
<g id="edge1" class="edge"><title>Analysis&#45;&gt;MKLDNNDeviceContext</title>
<path fill="none" stroke="black" d="M176.527,-208.316C192.724,-194.366 211.706,-178.016 228.659,-163.414"/>
<polygon fill="black" stroke="black" points="230.995,-166.021 236.288,-156.843 226.427,-160.718 230.995,-166.021"/>
<text text-anchor="middle" x="290.5" y="-178.8" font-family="Times,serif" font-size="14.00">How_To_Update_Hash_1()</text>
</g>
<!-- Parallel -->
<g id="node2" class="node"><title>Parallel</title>
<polygon fill="none" stroke="black" points="294.5,-208.5 294.5,-276.5 531.5,-276.5 531.5,-208.5 294.5,-208.5"/>
<text text-anchor="middle" x="413" y="-261.3" font-family="Times,serif" font-size="14.00">{Parallel|Fast|Naive} Executor </text>
<text text-anchor="middle" x="413" y="-246.3" font-family="Times,serif" font-size="14.00"> ... </text>
<text text-anchor="middle" x="413" y="-231.3" font-family="Times,serif" font-size="14.00">How_To_Update_Hash2() {</text>
<text text-anchor="middle" x="413" y="-216.3" font-family="Times,serif" font-size="14.00"> Hash = std::this_thread::get_id() : ??? }</text>
</g>
<!-- Parallel&#45;&gt;MKLDNNDeviceContext -->
<g id="edge3" class="edge"><title>Parallel&#45;&gt;MKLDNNDeviceContext</title>
<path fill="none" stroke="black" d="M396.006,-208.259C389.033,-196.773 380.191,-184.432 370,-175 365.097,-170.462 359.72,-166.19 354.096,-162.198"/>
<polygon fill="black" stroke="black" points="355.956,-159.231 345.705,-156.551 352.047,-165.038 355.956,-159.231"/>
<text text-anchor="middle" x="459.5" y="-178.8" font-family="Times,serif" font-size="14.00">How_To_Update_Hash_2()</text>
</g>
<!-- Op -->
<g id="node4" class="node"><title>Op</title>
<polygon fill="none" stroke="black" points="248,-0.5 248,-36.5 302,-36.5 302,-0.5 248,-0.5"/>
<text text-anchor="middle" x="275" y="-14.8" font-family="Times,serif" font-size="14.00">Op</text>
</g>
<!-- MKLDNNDeviceContext&#45;&gt;Op -->
<g id="edge2" class="edge"><title>MKLDNNDeviceContext&#45;&gt;Op</title>
<path fill="none" stroke="black" d="M275,-88.3835C275,-74.9316 275,-59.579 275,-46.7869"/>
<polygon fill="black" stroke="black" points="278.5,-46.7416 275,-36.7416 271.5,-46.7416 278.5,-46.7416"/>
<text text-anchor="middle" x="326.5" y="-58.8" font-family="Times,serif" font-size="14.00">Get_Hash_Prefix()</text>
</g>
</g>
</svg>
