<?xml version="1.0" encoding="UTF-8" standalone="no"?>
<!DOCTYPE svg PUBLIC "-//W3C//DTD SVG 1.1//EN"
 "http://www.w3.org/Graphics/SVG/1.1/DTD/svg11.dtd">
<!-- Generated by graphviz version 2.38.0 (20140413.2041)
 -->
<!-- Title: Q Pages: 1 -->
<svg width="580pt" height="272pt"
 viewBox="0.00 0.00 580.00 272.00" xmlns="http://www.w3.org/2000/svg" xmlns:xlink="http://www.w3.org/1999/xlink">
<g id="graph0" class="graph" transform="scale(1 1) rotate(0) translate(4 268)">
<title>Q</title>
<polygon fill="white" stroke="none" points="-4,4 -4,-268 576,-268 576,4 -4,4"/>
<!-- Analysis -->
<g id="node1" class="node"><title>Analysis</title>
<polygon fill="none" stroke="black" points="0,-195.5 0,-263.5 313,-263.5 313,-195.5 0,-195.5"/>
<text text-anchor="middle" x="156.5" y="-248.3" font-family="Times,serif" font-size="14.00">Analysis Predictor</text>
<text text-anchor="middle" x="156.5" y="-233.3" font-family="Times,serif" font-size="14.00"> ...</text>
<text text-anchor="middle" x="156.5" y="-218.3" font-family="Times,serif" font-size="14.00">Create_Key() {</text>
<text text-anchor="middle" x="156.5" y="-203.3" font-family="Times,serif" font-size="14.00"> Partial_Key = paddle::platform::get_cur_thread_id()}</text>
</g>
<!-- MKLDNNDeviceContext -->
<g id="node3" class="node"><title>MKLDNNDeviceContext</title>
<polygon fill="none" stroke="black" points="224.5,-90.5 224.5,-143.5 382.5,-143.5 382.5,-90.5 224.5,-90.5"/>
<text text-anchor="middle" x="303.5" y="-128.3" font-family="Times,serif" font-size="14.00">MKLDNNDeviceContext</text>
<text text-anchor="middle" x="303.5" y="-113.3" font-family="Times,serif" font-size="14.00"> Get_Key_Prefix() {</text>
<text text-anchor="middle" x="303.5" y="-98.3" font-family="Times,serif" font-size="14.00"> return Create_Key();}</text>
</g>
<!-- Analysis&#45;&gt;MKLDNNDeviceContext -->
<g id="edge1" class="edge"><title>Analysis&#45;&gt;MKLDNNDeviceContext</title>
<path fill="none" stroke="black" d="M200.605,-195.346C219.759,-180.948 242.101,-164.154 261.063,-149.9"/>
<polygon fill="black" stroke="black" points="263.347,-152.561 269.238,-143.755 259.141,-146.966 263.347,-152.561"/>
<text text-anchor="middle" x="280.5" y="-165.8" font-family="Times,serif" font-size="14.00">Create_Key()</text>
</g>
<!-- Parallel -->
<g id="node2" class="node"><title>Parallel</title>
<polygon fill="none" stroke="black" points="331,-195.5 331,-263.5 572,-263.5 572,-195.5 331,-195.5"/>
<text text-anchor="middle" x="451.5" y="-248.3" font-family="Times,serif" font-size="14.00">{Parallel|Fast|Naive} Executor </text>
<text text-anchor="middle" x="451.5" y="-233.3" font-family="Times,serif" font-size="14.00"> ... </text>
<text text-anchor="middle" x="451.5" y="-218.3" font-family="Times,serif" font-size="14.00">Create_Key() {</text>
<text text-anchor="middle" x="451.5" y="-203.3" font-family="Times,serif" font-size="14.00"> Partial_Key = std::this_thread::get_id()}</text>
</g>
<!-- Parallel&#45;&gt;MKLDNNDeviceContext -->
<g id="edge3" class="edge"><title>Parallel&#45;&gt;MKLDNNDeviceContext</title>
<path fill="none" stroke="black" d="M407.095,-195.346C387.811,-180.948 365.317,-164.154 346.226,-149.9"/>
<polygon fill="black" stroke="black" points="348.102,-146.933 337.995,-143.755 343.914,-152.542 348.102,-146.933"/>
<text text-anchor="middle" x="418.5" y="-165.8" font-family="Times,serif" font-size="14.00">Create_Key()</text>
</g>
<!-- Op -->
<g id="node4" class="node"><title>Op</title>
<polygon fill="none" stroke="black" points="180,-0.5 180,-38.5 427,-38.5 427,-0.5 180,-0.5"/>
<text text-anchor="middle" x="303.5" y="-23.3" font-family="Times,serif" font-size="14.00">Op</text>
<text text-anchor="middle" x="303.5" y="-8.3" font-family="Times,serif" font-size="14.00"> Key = key_common + Get_Key_Prefix()</text>
</g>
<!-- MKLDNNDeviceContext&#45;&gt;Op -->
<g id="edge2" class="edge"><title>MKLDNNDeviceContext&#45;&gt;Op</title>
<path fill="none" stroke="black" d="M303.5,-90.4078C303.5,-77.6311 303.5,-62.1349 303.5,-48.9821"/>
<polygon fill="black" stroke="black" points="307,-48.5961 303.5,-38.5962 300,-48.5962 307,-48.5961"/>
<text text-anchor="middle" x="352.5" y="-60.8" font-family="Times,serif" font-size="14.00">Get_Key_Prefix()</text>
</g>
</g>
</svg>
